# xmcd
#
# Track frame offsets: 
#        150
#        25280
#        50387
#        75520
#
# Disc length: 1085 seconds
#
# Revision: 0
# Processed by: cddbd v1.5.2PL0 Copyright (c) Steve Scherf et al.
# Submitted via: ExactAudioCopy v1.3
#
DISCID=24043b04
DTITLE=Babyface - Whip Appeal (Promo CDM)
DYEAR=1990
DGENRE=Funk
TTITLE0=Whip Appeal (Performance Piece)
TTITLE1=Whip Appeal (The Ultimate Whip)
TTITLE2=Whip Appeal (Instrumental)
TTITLE3=Whip Appeal (The Reprise)
EXTD=
EXTT0=
EXTT1=
EXTT2=
EXTT3=
PLAYORDER=
